<?xml version="1.0" encoding="UTF-8"?>
<svg width="10px" height="10px" viewBox="0 0 10 10" version="1.1" xmlns="http://www.w3.org/2000/svg" xmlns:xlink="http://www.w3.org/1999/xlink">
    <!-- Generator: Sketch 63.1 (92452) - https://sketch.com -->
    <title>calendar</title>
    <desc>Created with Sketch.</desc>
    <g id="YoYo-Front-End" stroke="none" stroke-width="1" fill="none" fill-rule="evenodd">
        <g id="Home---Search" transform="translate(-139.000000, -409.000000)" fill="#99A2AA" fill-rule="nonzero">
            <g id="calendar" transform="translate(139.000000, 409.000000)">
                <path d="M8.7109375,0.78125 L7.8125,0.78125 L7.8125,0.3125 C7.8125,0.139921875 7.67259766,0 7.5,0 C7.32740234,0 7.1875,0.139921875 7.1875,0.3125 L7.1875,0.78125 L2.8125,0.78125 L2.8125,0.3125 C2.8125,0.139921875 2.67259766,0 2.5,0 C2.32740234,0 2.1875,0.139921875 2.1875,0.3125 L2.1875,0.78125 L1.2890625,0.78125 C0.578261719,0.78125 0,1.35951172 0,2.0703125 L0,8.7109375 C0,9.42173828 0.578261719,10 1.2890625,10 L8.7109375,10 C9.42173828,10 10,9.42173828 10,8.7109375 L10,2.0703125 C10,1.35951172 9.42173828,0.78125 8.7109375,0.78125 Z M1.2890625,1.40625 L2.1875,1.40625 L2.1875,1.71875 C2.1875,1.89132813 2.32740234,2.03125 2.5,2.03125 C2.67259766,2.03125 2.8125,1.89132813 2.8125,1.71875 L2.8125,1.40625 L7.1875,1.40625 L7.1875,1.71875 C7.1875,1.89132813 7.32740234,2.03125 7.5,2.03125 C7.67259766,2.03125 7.8125,1.89132813 7.8125,1.71875 L7.8125,1.40625 L8.7109375,1.40625 C9.07710937,1.40625 9.375,1.70414062 9.375,2.0703125 L9.375,2.8125 L0.625,2.8125 L0.625,2.0703125 C0.625,1.70414062 0.922890625,1.40625 1.2890625,1.40625 Z M8.7109375,9.375 L1.2890625,9.375 C0.922890625,9.375 0.625,9.07710937 0.625,8.7109375 L0.625,3.4375 L9.375,3.4375 L9.375,8.7109375 C9.375,9.07710937 9.07710937,9.375 8.7109375,9.375 Z" id="Shape"></path>
            </g>
        </g>
    </g>
</svg>