<?xml version="1.0" encoding="UTF-8"?>
<svg width="6px" height="9px" viewBox="0 0 6 9" version="1.1" xmlns="http://www.w3.org/2000/svg" xmlns:xlink="http://www.w3.org/1999/xlink">
    <!-- Generator: Sketch 63.1 (92452) - https://sketch.com -->
    <title>linkArrow</title>
    <desc>Created with Sketch.</desc>
    <g id="YoYo-Front-End" stroke="none" stroke-width="1" fill="none" fill-rule="evenodd">
        <g id="Home" transform="translate(-631.000000, -2842.000000)" fill="#77838F" fill-rule="nonzero">
            <g id="linkArrow" transform="translate(631.000000, 2842.000000)">
                <path d="M0.739565747,0.353559247 L0.385434253,0.707702472 C0.190183485,0.902971421 0.190186107,1.21954939 0.385440109,1.41481511 L3.470625,4.5 L3.470625,4.5 L0.385440109,7.58518489 C0.190186107,7.78045061 0.190183485,8.09702858 0.385434253,8.29229753 L0.739565747,8.64644075 C0.934818802,8.84171199 1.25140129,8.84171723 1.44666667,8.64645832 C1.44666862,8.64645637 1.44667058,8.64645442 1.44666667,8.64644661 L5.23955989,4.85355339 C5.43482204,4.65829124 5.43482204,4.34170876 5.23955989,4.14644661 L1.44666667,0.353553391 C1.25141038,0.158285389 0.934827893,0.158285389 0.739565747,0.353547534 C0.739563795,0.353549487 0.739561843,0.353551439 0.739565747,0.353559247 Z" id="Path"></path>
            </g>
        </g>
    </g>
</svg>