<?xml version="1.0" encoding="UTF-8"?>
<svg width="10px" height="13px" viewBox="0 0 10 13" version="1.1" xmlns="http://www.w3.org/2000/svg" xmlns:xlink="http://www.w3.org/1999/xlink">
    <!-- Generator: Sketch 63.1 (92452) - https://sketch.com -->
    <title>mappin-icon</title>
    <desc>Created with Sketch.</desc>
    <g id="YoYo-Front-End" stroke="none" stroke-width="1" fill="none" fill-rule="evenodd">
        <g id="Home---Search" transform="translate(-139.000000, -342.000000)" fill="#99A2AA" fill-rule="nonzero">
            <g id="placeholder" transform="translate(139.000000, 342.000000)">
                <path d="M5,0 C2.24307692,0 0,2.22117194 0,4.95117201 C0,6.03154313 0.344615385,7.05808613 0.997435897,7.91933615 L4.69179487,12.8464125 C4.70102564,12.8583461 4.71512821,12.8629164 4.72538462,12.8735804 C4.91,13.0693422 5.17641026,13.0200843 5.30794872,12.8464125 C6.37179487,11.4407874 8.32179487,8.81562524 9.07153846,7.82539084 C9.07153846,7.82539084 9.07179487,7.82462912 9.07205128,7.82412131 L9.07666667,7.81802756 C9.68076923,6.97759785 10,5.98634782 10,4.95117201 C10,2.22117194 7.75692308,0 5,0 Z M5,7.62226583 C3.51564103,7.62226583 2.3025641,6.42103533 2.3025641,4.95117201 C2.3025641,3.48130869 3.51564103,2.28007819 5,2.28007819 C6.48435897,2.28007819 7.6974359,3.48130869 7.6974359,4.95117201 C7.6974359,6.42103533 6.48435897,7.62226583 5,7.62226583 Z" id="mappin-icon"></path>
            </g>
        </g>
    </g>
</svg>